{"title":"Operation Track Down (480p-10bit)-CRF16","uid":8682409,"size":1468487412,"categoryP":"video","categoryS":"movies","magnet":"?xt=urn:btih:cbee16cb2641ab9d47c3cabcb09840c9b328e8e5&amp;dn=Operation+Track+Down+%28480p-10bit%29-CRF16&amp;tr=udp%3A%2F%2Ftracker.openbittorrent.com%3A80&amp;tr=udp%3A%2F%2Fopen.demonii.com%3A1337&amp;tr=udp%3A%2F%2Ftracker.coppersurfer.tk%3A6969&amp;tr=udp%3A%2F%2Fexodus.desync.com%3A6969","seeders":1,"leechers":0,"uploader":"AV_dude","files":1,"time":1373732049,"description":"Will play in any recent build of Media Player Classic Home Cinema. \n\nGeneral \nUnique ID : 178840994752397957766320667413697843420 (0x868B85D02D1159C5A8FC20791AD8D0DC) \nComplete name : H:OUTOperation Track Down (480p-10bit).mkv \nFormat : Matroska \nFormat version : Version 4 / Version 2 \nFile size : 1.37 GiB \nDuration : 1h 35mn \nOverall bit rate mode : Variable \nOverall bit rate : 2 043 Kbps \nEncoded date : UTC 2013-07-12 09:55:13 \nWriting application : mkvmerge v6.3.0 ('You can't stop me!') built on Jun 28 2013 20:09:41 \nWriting library : libebml v1.3.0 + libmatroska v1.4.0 \nAttachment : Yes \n\nVideo \nID : 1 \nFormat : AVC \nFormat/Info : Advanced Video Codec \nFormat profile : High &lt;a class=&quot;__cf_email__&quot; href=&quot;/cdn-cgi/l/email-protection&quot; data-cfemail=&quot;b38283f3ff809d83&quot;&gt;[email&amp;#160;protected]&lt;/a&gt;&lt;script cf-hash='f9e31' type=&quot;text/javascript&quot;&gt;\n/* &lt;![CDATA[ */!function(){try{var t=&quot;currentScript&quot;in document?document.currentScript:function(){for(var t=document.getElementsByTagName(&quot;script&quot;),e=t.length;e--;)if(t[e].getAttribute(&quot;cf-hash&quot;))return t[e]}();if(t&amp;&amp;t.previousSibling){var e,r,n,i,c=t.previousSibling,a=c.getAttribute(&quot;data-cfemail&quot;);if(a){for(e=&quot;&quot;,r=parseInt(a.substr(0,2),16),n=2;a.length-n;n+=2)i=parseInt(a.substr(n,2),16)^r,e+=String.fromCharCode(i);e=document.createTextNode(e),c.parentNode.replaceChild(e,c)}}}catch(u){}}();/* ]]&gt; */&lt;/script&gt; \nFormat settings, CABAC : Yes \nFormat settings, ReFrames : 4 frames \nCodec ID : V_MPEG4/ISO/AVC \nDuration : 1h 35mn \nBit rate : 1 810 Kbps \nWidth : 720 pixels \nHeight : 448 pixels \nDisplay aspect ratio : 1.935 \nOriginal display aspect ratio : 1.936 \nFrame rate mode : Constant \nFrame rate : 23.976 fps \nOriginal frame rate : 24.000 fps \nColor space : YUV \nChroma subsampling : 4:2:0 \nBit depth : 10 bits \nScan type : Progressive \nBits/(Pixel*Frame) : 0.234 \nStream size : 1.21 GiB (89%) \nWriting library : x264 core 132 r2310 76a5c3a \nEncoding settings : cabac=1 / ref=4 / deblock=1:0:0 / analyse=0x3:0x133 / me=hex / subme=7 / psy=1 / psy_rd=1.00:0.00 / mixed_ref=1 / me_range=16 / chroma_me=1 / trellis=2 / 8x8dct=1 / cqm=0 / deadzone=21,11 / fast_pskip=1 / chroma_qp_offset=-2 / threads=12 / lookahead_threads=3 / sliced_threads=0 / nr=0 / decimate=1 / interlaced=0 / bluray_compat=0 / constrained_intra=0 / bframes=4 / b_pyramid=2 / b_adapt=2 / b_bias=0 / direct=3 / weightb=1 / open_gop=0 / weightp=2 / keyint=240 / keyint_min=24 / scenecut=40 / intra_refresh=0 / rc_lookahead=120 / rc=crf / mbtree=1 / crf=16.0 / qcomp=0.60 / qpmin=0 / qpmax=81 / qpstep=4 / ip_ratio=1.40 / aq=1:1.00 \nLanguage : English \nDefault : Yes \nForced : No \n\nAudio \nID : 2 \nFormat : Vorbis \nFormat settings, Floor : 1 \nCodec ID : A_VORBIS \nDuration : 1h 35mn \nBit rate mode : Variable \nBit rate : 192 Kbps \nChannel(s) : 2 channels \nSampling rate : 48.0 KHz \nCompression mode : Lossy \nStream size : 132 MiB (9%) \nWriting library : libVorbis (Omnipresent) (20120203 (Omnipresent)) \nDefault : Yes \nForced : No \n\nText \nID : 3 \nFormat : VobSub \nMuxing mode : zlib \nCodec ID : S_VOBSUB \nCodec ID/Info : The same subtitle format used on DVDs \nLanguage : English \nDefault : Yes \nForced : No \n\nMenu \n00:00:00.066 : en:Chapter 01 \n00:08:10.490 : en:Chapter 02 \n00:13:49.395 : en:Chapter 03 \n00:18:18.213 : en:Chapter 04 \n00:20:40.739 : en:Chapter 05 \n00:30:12.410 : en:Chapter 06 \n00:32:43.294 : en:Chapter 07 \n00:43:34.678 : en:Chapter 08 \n00:51:57.681 : en:Chapter 09 \n00:54:46.700 : en:Chapter 10 \n01:00:18.047 : en:Chapter 11 \n01:07:31.297 : en:Chapter 12 \n01:14:04.673 : en:Chapter 13 \n01:20:22.818 : en:Chapter 14 \n01:27:24.656 : en:Chapter 15 \n01:31:35.990 : en:Chapter 16 \n\n","torrent":{"xt":"urn:btih:cbee16cb2641ab9d47c3cabcb09840c9b328e8e5","amp;dn":"Operation+Track+Down+%28480p-10bit%29-CRF16","amp;tr":["udp%3A%2F%2Ftracker.openbittorrent.com%3A80","udp%3A%2F%2Fopen.demonii.com%3A1337","udp%3A%2F%2Ftracker.coppersurfer.tk%3A6969","udp%3A%2F%2Fexodus.desync.com%3A6969"],"infoHash":"cbee16cb2641ab9d47c3cabcb09840c9b328e8e5","infoHashBuffer":{"type":"Buffer","data":[203,238,22,203,38,65,171,157,71,195,202,188,176,152,64,201,179,40,232,229]},"announce":[],"urlList":[]}}